<?xml version="1.0" standalone="no"?>
<!DOCTYPE svg PUBLIC "-//W3C//DTD SVG 20010904//EN"
 "http://www.w3.org/TR/2001/REC-SVG-20010904/DTD/svg10.dtd">
<svg version="1.0" xmlns="http://www.w3.org/2000/svg"
 width="557.000000pt" height="557.000000pt" viewBox="0 0 557.000000 557.000000"
 preserveAspectRatio="xMidYMid meet">
<metadata>
Created by potrace 1.14, written by Peter Selinger 2001-2017
</metadata>
<g transform="translate(0.000000,557.000000) scale(0.100000,-0.100000)"
fill="#000000" stroke="none">
<path d="M2588 5565 c-1 -1 -32 -6 -68 -9 -121 -12 -155 -17 -260 -37 -195
-37 -408 -102 -548 -165 -40 -18 -75 -33 -77 -33 -11 0 -195 -96 -275 -144
-430 -257 -781 -622 -1022 -1062 -135 -247 -258 -594 -293 -829 -3 -21 -7 -48
-10 -60 -35 -165 -41 -593 -11 -816 25 -180 76 -390 137 -560 96 -266 250
-547 425 -775 76 -98 234 -266 333 -355 46 -41 91 -82 100 -90 61 -56 282
-207 396 -270 346 -193 665 -294 1090 -346 123 -16 625 -7 655 11 3 2 27 6 54
9 184 25 507 114 616 171 16 9 33 16 37 16 23 3 175 76 278 134 58 32 238 146
245 155 3 3 21 16 40 27 19 12 44 30 55 40 11 10 49 42 85 72 524 431 877
1068 976 1761 19 137 26 515 11 640 -23 201 -43 309 -83 460 -27 102 -80 259
-111 331 -11 24 -28 64 -39 89 -36 85 -140 275 -199 365 -324 494 -767 858
-1310 1077 -91 37 -278 99 -344 113 -130 29 -204 44 -238 49 -24 3 -62 9 -85
12 -24 3 -54 8 -68 10 -28 6 -486 14 -492 9z"/>
</g>
</svg>
