<?xml version="1.0" encoding="UTF-8" standalone="no"?>
<!-- Created with Inkscape (http://www.inkscape.org/) -->

<svg
   width="4.6040702in"
   height="5.01613in"
   viewBox="0 0 116.94338 127.40971"
   version="1.1"
   id="svg34019"
   inkscape:version="1.1.2 (0a00cf5339, 2022-02-04)"
   sodipodi:docname="logo.svg"
   inkscape:export-filename="/home/z/dev/go/src/github.com/zamicol/pueblo_sriracha/pueblo_sriracha_logo_big_300_dpi.png"
   inkscape:export-xdpi="300"
   inkscape:export-ydpi="300"
   xmlns:inkscape="http://www.inkscape.org/namespaces/inkscape"
   xmlns:sodipodi="http://sodipodi.sourceforge.net/DTD/sodipodi-0.dtd"
   xmlns="http://www.w3.org/2000/svg"
   xmlns:svg="http://www.w3.org/2000/svg">
  <sodipodi:namedview
     id="namedview34021"
     pagecolor="#ffffff"
     bordercolor="#666666"
     borderopacity="1.0"
     inkscape:pageshadow="2"
     inkscape:pageopacity="0.0"
     inkscape:pagecheckerboard="0"
     inkscape:document-units="mm"
     showgrid="false"
     inkscape:zoom="1.4142136"
     inkscape:cx="227.33483"
     inkscape:cy="141.42136"
     inkscape:window-width="1929"
     inkscape:window-height="2121"
     inkscape:window-x="1907"
     inkscape:window-y="37"
     inkscape:window-maximized="1"
     inkscape:current-layer="g7194"
     units="in"
     fit-margin-top="0"
     fit-margin-left="0"
     fit-margin-right="0"
     fit-margin-bottom="0" />
  <defs
     id="defs34016" />
  <g
     inkscape:label="Layer 1"
     inkscape:groupmode="layer"
     id="layer1"
     transform="translate(-71.928272,-110.19519)">
    <rect
       style="fill:#ff00ff;stroke:none;stroke-width:1.26639"
       id="rect942"
       width="67.011276"
       height="75.480087"
       x="96.712334"
       y="136.13971" />
    <rect
       style="fill:#ffffff;stroke-width:1.259"
       id="rect7883"
       width="140.84399"
       height="158.81262"
       x="-107.04185"
       y="288.65817"
       inkscape:export-filename="/home/z/dev/go/src/github.com/zamicol/pueblo_sriracha/pueblo_sriracha_logo_big_white.png"
       inkscape:export-xdpi="300"
       inkscape:export-ydpi="300" />
    <g
       id="g34429"
       transform="matrix(1.0000043,0,0,0.99964997,30.929311,92.513169)"
       inkscape:export-filename="/home/z/dev/go/src/github.com/zamicol/pueblo_sriracha/pueblo_sriracha_logo_3411.png"
       inkscape:export-xdpi="1299.97"
       inkscape:export-ydpi="1299.97">
      <rect
         style="fill:#aa0000;fill-opacity:1;stroke:none;stroke-width:5.25569"
         id="rect2948-6-1-1-6-0-76"
         width="40.931595"
         height="18.449953"
         x="77.944839"
         y="54.485073" />
      <g
         id="g7144-3-0-3-4-0-5-29-3"
         transform="translate(-225.96316,12.29391)">
        <circle
           style="fill:#aa0000;fill-opacity:1;stroke:none;stroke-width:5.00649;stroke-miterlimit:4;stroke-dasharray:none;stroke-opacity:1"
           id="path4049-0-3-3-8-8-5-7-9-6-1-1"
           cx="324.86795"
           cy="74.659142"
           r="23.583147" />
        <circle
           style="fill:#ffffff;fill-opacity:1;stroke:none;stroke-width:4.6841;stroke-miterlimit:4;stroke-dasharray:none;stroke-opacity:1"
           id="path4049-0-3-8-1-6-8-6-2-2-4"
           cx="324.86795"
           cy="74.659142"
           r="22.064531" />
        <g
           transform="matrix(0.43681906,0,0,0.43863533,279.00194,17.996812)"
           id="g1723-7-3-3-1-4-4-9-6-6-7-3-1-6-6-3-3-2-4-3-9-7-9"
           style="fill:#000080;fill-opacity:0.985024;stroke:#ffffff;stroke-width:13.2292;stroke-linecap:square;stroke-miterlimit:4;stroke-dasharray:none">
          <path
             inkscape:connector-curvature="0"
             style="fill:#ffd700;fill-opacity:1;stroke:none;stroke-width:0.1;stroke-miterlimit:4;stroke-dasharray:none;stroke-opacity:1"
             d="M 396.84961,316.0918 A 172.14284,172.14284 0 0 0 225.3418,475.57617 H 568.50391 A 172.14284,172.14284 0 0 0 396.84961,316.0918 Z"
             id="path1533-5-4-5-3-8-2-4-0-5-6-0-8-5-1-1-9-5-8-1-0-2"
             transform="scale(0.26458333)" />
          <path
             inkscape:connector-curvature="0"
             style="fill:#d45500;fill-opacity:1;stroke:none;stroke-width:0.0264583;stroke-miterlimit:4;stroke-dasharray:none;stroke-opacity:1"
             d="m 59.562369,128.94404 a 45.546126,45.546126 0 0 0 -0.06253,1.24954 45.546126,45.546126 0 0 0 0.646473,7.3179 h 89.834828 a 45.546126,45.546126 0 0 0 0.61133,-7.3179 45.546126,45.546126 0 0 0 -0.0444,-1.24954 z"
             id="path1531-0-1-0-8-4-1-0-3-3-7-6-9-6-8-1-12-0-5-2-9-0" />
          <path
             inkscape:connector-curvature="0"
             style="fill:#aa0000;fill-opacity:1;stroke:none;stroke-width:0.0264583;stroke-miterlimit:4;stroke-dasharray:none;stroke-opacity:1"
             d="m 60.590617,139.91206 a 45.546126,45.546126 0 0 0 2.52956,7.77575 h 83.726673 a 45.546126,45.546126 0 0 0 2.54196,-7.77575 z"
             id="path1529-8-5-6-6-8-7-9-3-5-5-3-2-3-9-0-7-3-6-7-3-6" />
          <path
             inkscape:connector-curvature="0"
             style="fill:#aa0000;fill-opacity:1;stroke:none;stroke-width:0.1;stroke-miterlimit:4;stroke-dasharray:none;stroke-opacity:1"
             d="m 245.24805,569.12695 a 172.14284,172.14284 0 0 0 15.25781,23.40821 h 272.75976 a 172.14284,172.14284 0 0 0 15.16016,-23.40821 z"
             id="path1527-0-0-5-0-1-7-4-6-6-3-2-6-9-6-3-0-6-1-0-6-8"
             transform="scale(0.26458333)" />
          <path
             inkscape:connector-curvature="0"
             style="fill:#aa0000;fill-opacity:1;stroke:none;stroke-width:0.1;stroke-miterlimit:4;stroke-dasharray:none;stroke-opacity:1"
             d="m 269.9119,605.70185 c 31.67303,29.38589 83.73255,54.51488 126.93771,54.6751 43.18761,-0.17295 95.35752,-25.02124 127.01768,-54.39527 z"
             id="path1387-4-8-0-8-6-9-5-1-2-5-0-6-4-4-4-9-1-1-9-0-9"
             transform="scale(0.26458333)"
             sodipodi:nodetypes="cccc" />
        </g>
      </g>
      <g
         id="g7194"
         transform="matrix(1.1348666,0,0,1.0466069,-434.35932,360.10077)">
        <g
           transform="matrix(0.21349294,0,0,0.21349294,121.49304,-267.99805)"
           id="g2397-9-2-3-8-3-37-5-0-6-8-0-0-3-9-0-6-5-6">
          <path
             style="color:#000000;font-style:normal;font-variant:normal;font-weight:normal;font-stretch:normal;font-size:medium;line-height:normal;font-family:sans-serif;font-variant-ligatures:normal;font-variant-position:normal;font-variant-caps:normal;font-variant-numeric:normal;font-variant-alternates:normal;font-feature-settings:normal;text-indent:0;text-align:start;text-decoration:none;text-decoration-line:none;text-decoration-style:solid;text-decoration-color:#000000;letter-spacing:normal;word-spacing:normal;text-transform:none;writing-mode:lr-tb;direction:ltr;text-orientation:mixed;dominant-baseline:auto;baseline-shift:baseline;text-anchor:start;white-space:normal;shape-padding:0;clip-rule:nonzero;display:inline;overflow:visible;visibility:visible;opacity:1;isolation:auto;mix-blend-mode:normal;color-interpolation:sRGB;color-interpolation-filters:linearRGB;solid-color:#000000;solid-opacity:1;fill:#aa0000;fill-opacity:1;fill-rule:nonzero;stroke:#aa0000;stroke-width:5.89715;stroke-linecap:square;stroke-linejoin:miter;stroke-miterlimit:4;stroke-dasharray:none;stroke-dashoffset:0;stroke-opacity:1;color-rendering:auto;image-rendering:auto;shape-rendering:auto;text-rendering:auto;enable-background:accumulate"
             d="m 1530.8328,-157.84065 -24.5821,0.002 v 5.29101 5.29102 l -0.054,165.298021 17.4219,-14.7441307 c 4.221,-3.57262046 16.0988,-13.5311923 20.6407,-16.6773723 l 11.0558,-14.345227 -6.4261,-34.145822 c 3.4457,-2.19038 -0.9235,-4.135644 1.8646,-7.194074 0.4236,0.86601 0.8665,1.72584 1.414,2.54689 2.5692,4.04662 6.468,7.03539 10.9766,8.53125 6.0217,2.05869 12.064,0.95028 17.7461,-0.98047 3.3675,-1.14426 6.4818,-2.62976 9.3359,-4.42775 l 12.3868,-2.42967 c 9.9973,-1.95995 20.1497,-3.02616 30.3359,-3.18555 l 2.8496,-0.043 17.3145,1.63281 c 5.6656,0.50012 11.3728,0.15947 16.58,-1.58399 v 3.53126 l 7.9414,2.04883 c 9.4289,2.43084 18.5852,5.7813 27.4668,9.77539 v 8.64648 0.13282 0.0645 c 0.1478,5.9002 1.0462,12.253739 2.7617,17.553539 3.1792,3.158643 5.298,8.26774 7.6034,13.296661 4.1066,5.1426581 7.5643,10.3686935 12.9884,15.5255977 5.8477,3.8094105 13.6323,6.7187405 21.0645,3.1035001 5.2849,-2.46176 8.9301,-7.05797 10.873,-12.15818 2.1339,-5.1745298 2.8926,-10.9570188 3.0332,-17.5507788 v -0.0566 -0.11133 -91.928544 -0.11328 -0.0586 c -0.1414,-6.5826 -0.9798,-12.60108 -2.7559,-18.06445 -2.0717,-5.55641 -4.738,-10.85466 -7.9744,-14.46301 -4.8006,-5.15254 -11.5111,-8.00977 -18.4687,-8.00977 -6.7359,0 -13.2382,2.44165 -18.1055,7.04688 -3.6425,3.41651 -6.2537,7.71937 -8.0116,12.43554 -1.9712,4.83829 -2.8631,10.15436 -3.0117,15.87696 v 0.0684 c 0.2306,-20.12812 -0.097,-15.7583 -0.1114,-35.42788 h -35.2969 v 3.63671 c -6.0173,-2.70701 -12.9646,-3.63671 -20.6835,-3.63671 h -10.9433 -6.0255 -30.4589 -6.3047 -17.2286 -1.1445 -28.8262 v 4.95899 c -5.0944,-3.1243 -10.9756,-4.95899 -17.2441,-4.95899 z m 122.2793,90.419915 0.037,0.004 0.1,0.006 z m -57.5,-0.0781 -0.088,0.082 c 0.014,-0.0132 0.025,-0.0278 0.039,-0.041 0.015,-0.0147 0.034,-0.0263 0.049,-0.041 z"
             id="path2201-9-3-0-7-7-5-7-12-3-9-5-1-4-3-6-3-8-7-3-8"
             inkscape:connector-curvature="0"
             sodipodi:nodetypes="ccccccccccccccccccccccccccccccccccccccscccccccscccccccccccccccccc" />
          <path
             sodipodi:nodetypes="ccccccccccccccccccccccccccccccccccccccscccccccccccccscccccccccccc"
             style="color:#000000;font-style:normal;font-variant:normal;font-weight:normal;font-stretch:normal;font-size:medium;line-height:normal;font-family:sans-serif;font-variant-ligatures:normal;font-variant-position:normal;font-variant-caps:normal;font-variant-numeric:normal;font-variant-alternates:normal;font-feature-settings:normal;text-indent:0;text-align:start;text-decoration:none;text-decoration-line:none;text-decoration-style:solid;text-decoration-color:#000000;letter-spacing:normal;word-spacing:normal;text-transform:none;writing-mode:lr-tb;direction:ltr;text-orientation:mixed;dominant-baseline:auto;baseline-shift:baseline;text-anchor:start;white-space:normal;shape-padding:0;clip-rule:nonzero;display:inline;overflow:visible;visibility:visible;opacity:1;isolation:auto;mix-blend-mode:normal;color-interpolation:sRGB;color-interpolation-filters:linearRGB;solid-color:#000000;solid-opacity:1;vector-effect:none;fill:#ffffff;fill-opacity:1;fill-rule:nonzero;stroke:none;stroke-width:10.5833;stroke-linecap:square;stroke-linejoin:miter;stroke-miterlimit:4;stroke-dasharray:none;stroke-dashoffset:0;stroke-opacity:1;color-rendering:auto;image-rendering:auto;shape-rendering:auto;text-rendering:auto;enable-background:accumulate"
             d="m 1511.5417,-152.66359 v 5.29168 l 0.034,153.8888869 8.71,-7.37218086 c 4.3524,-3.68383974 8.8788,-7.15041974 13.5594,-10.39265004 l 2.2774,-1.57768 -0.016,-51.364371 c 6.446,-3.43473 11.8261,-8.699 15.9995,-15.35721 0.4537,-0.69744 0.8573,-1.42941 1.2744,-2.15231 v 7.790095 0.0967 c 0.1511,4.1344 1.0941,7.93977 3.2205,11.09853 1.8891,2.99791 4.8546,5.28211 8.2294,6.39602 4.4474,1.52854 9.1572,0.78541 14.3552,-0.98086 5.8783,-2.809723 12.3708,-5.50431 16.3386,-10.117895 l 0.1622,2.304254 5.9071,-2.015242 c 9.9471,-2.940867 20.7654,-5.623961 31.2657,-5.788251 l 3.1409,-0.0491 17.79,2.004924 0.016,0.001 c 8.5598,0.7556 16.1263,3.00781 21.4065,-2.12003 v 8.38761 l 3.9708,1.0237 c 10.8163,2.78855 21.1098,5.790684 31.2077,10.563864 v 8.70106 0.0661 c 0.1369,5.46601 0.9641,10.6015 2.5156,15.38046 1.3889,4.63673 3.38,9.02908 5.9516,13.13717 3.0644,5.112219 7.2858,9.4544288 12.4845,12.8410788 5.1677,3.36642994 10.7865,5.28541 15.9122,2.76158994 3.8521,-1.78179994 6.6882,-5.26130994 8.2207,-9.32295014 1.7839,-4.2872996 2.5243,-9.4451986 2.6582,-15.7235886 v -0.0563 -91.928164 -0.0569 c -0.1338,-6.23028 -0.9267,-11.7624 -2.5115,-16.61036 -1.0964,-4.65947 -5.7167,-11.06202 -7.1288,-12.47459 -3.7922,-4.07024 -8.7477,-6.27416 -14.2629,-6.27416 -5.4739,0 -10.642,1.96861 -14.4818,5.60742 -2.9735,2.78702 -5.1893,6.37884 -6.7174,10.5115 -1.6842,4.10652 -2.5033,8.79756 -2.6407,14.08494 v 0.0687 45.825088 l -10.6955,-4.389299 v -71.708399 h -24.7122 v 5.29167 3.23494 c -1.0971,-1.29269 -2.3503,-2.45257 -3.7838,-3.42769 l -0.01,-0.004 -0.01,-0.004 c -5.5817,-3.77666 -12.9891,-5.0917 -22.1713,-5.0917 h -10.9445 -6.0255 -30.4576 -6.306 -17.2285 -1.1441 -23.5344 v 5.29167 6.26991 c -0.536,-0.73417 -1.0777,-1.46333 -1.678,-2.14148 -5.0988,-6.05597 -12.5361,-9.4201 -20.8581,-9.4201 z"
             id="path2199-0-5-7-4-9-5-6-2-9-3-6-2-4-9-7-1-8-5-5-8"
             inkscape:connector-curvature="0" />
          <path
             style="fill:#aa0000;fill-opacity:1;stroke:none;stroke-width:3.56738;stroke-linecap:square;stroke-miterlimit:4;stroke-dasharray:none;stroke-opacity:1"
             d="m 1516.8303,-147.48754 -0.071,142.0049563 c 4.4836,-3.79487 9.145,-7.3653203 13.9645,-10.7037403 l 0.089,-51.449241 c 6.8333,-2.83108 12.4453,-7.85767 16.8372,-14.8823 5.1957,-7.97356 7.801,-17.967605 7.815,-30.258085 0.014,-12.34192 -2.5739,-21.29145 -7.7654,-27.12496 -4.1798,-4.99765 -9.7996,-7.58663 -16.8584,-7.58663 z m 41.8388,0 v 73.36594 c 0.1275,3.48933 0.9144,6.29959 2.3601,8.41138 1.2756,2.06235 3.1038,3.48462 5.4849,4.26331 2.6787,0.93284 6.3352,0.59657 10.9699,-0.97823 7.9311,-2.992245 18.1034,-7.702264 18.8148,-16.587398 v -68.475002 h -14.0952 l 0.01,67.318521 c -0.089,3.332294 -2.2857,4.246646 -4.7196,4.997118 -2.9885,0.896341 -4.6878,-1.867865 -4.7197,-4.39925 l -0.01,-67.916429 z m 41.907,0 v 75.051047 c 10.0612,-2.564232 21.3866,-5.717181 32.201,-5.886411 v -10.20612 l -18.1347,0.117459 V -107.5489 l 13.0478,-0.78651 v -10.96625 l -13.0478,0.56637 v -18.25882 l 18.1395,-0.28734 v -10.20609 z m 36.7636,0 v 69.217346 l 16.937,1.924244 c 7.9503,0.7018 13.6338,-0.24416 17.2899,-3.82143 3.1644,-3.13518 4.5302,-9.486645 4.5302,-15.332635 0,-3.66179 -0.5402,-6.658815 -1.6175,-8.984455 -2.1429,-4.59386 -4.9974,-7.71966 -8.5431,-9.38757 3.3696,-2.05741 5.7564,-4.11144 7.1354,-6.15052 1.2961,-1.92455 1.9462,-4.68504 1.9462,-8.27599 0,-6.92532 -2.2806,-11.93968 -6.7887,-15.00631 -4.1363,-2.79865 -10.5906,-4.18268 -19.2061,-4.18268 z m 42.9359,0 0.2292,78.57968 c 11.3107,2.91603 19.6241,5.212128 30.1698,10.234538 v -12.487306 l -16.27,-6.024693 v -70.302219 z m 53.9574,0 c -4.3323,0 -7.9502,1.40962 -10.8525,4.16512 -2.3134,2.16443 -4.1216,5.02836 -5.4255,8.59431 -1.3881,3.35247 -2.1455,7.4377 -2.2716,12.2902 v 77.853014 c 0.1261,5.03723 0.8836,9.66829 2.2716,13.92678 1.2619,4.23501 3.0701,8.22431 5.4255,11.97549 2.6499,4.430599 6.2678,8.168149 10.8525,11.1548788 4.5007,2.93192 8.0756,3.763 10.7255,2.43602 2.5658,-1.15397 4.4379,-3.34033 5.6157,-6.5411998 1.388,-3.30897 2.1449,-7.940019 2.2711,-13.858579 v -91.814934 c -0.1262,-5.87748 -0.8831,-10.94069 -2.2711,-15.15566 -1.2198,-4.15395 -3.0919,-7.62005 -5.6157,-10.38489 -2.9023,-3.11496 -6.4771,-4.64055 -10.7255,-4.64055 z m -83.5499,10.09396 c 2.6931,0.0485 4.7406,0.4261 6.1278,1.13533 2.7949,1.46015 4.203,4.29235 4.203,8.48579 0,4.16214 -1.408,6.88203 -4.203,8.14937 -1.3872,0.61353 -3.4346,0.8499 -6.1278,0.7126 z m 83.1789,8.10026 c 0.1211,0 0.2449,0.004 0.371,0.0156 1.2199,0.11111 2.1871,0.6843 2.9022,1.72497 1.1777,2.13231 1.7663,4.91175 1.7663,8.32095 v 87.646723 c 0,2.08017 -0.1679,3.57958 -0.5044,4.49585 -0.5889,2.84479 -1.9768,3.64774 -4.1641,2.42206 -1.1356,-0.63639 -2.0399,-1.59038 -2.713,-2.85718 -1.2618,-2.63553 -1.8929,-5.57115 -1.8929,-8.82582 v -84.162213 c 0,-1.87557 0.1679,-3.37243 0.5044,-4.49325 0.6703,-2.83727 1.9141,-4.27094 3.7305,-4.28761 z m -201.5215,1.61748 c 3.3682,-0.0185 5.7169,1.21765 7.0461,3.68248 1.3078,2.40648 1.9593,7.33041 1.9543,14.79959 0,7.35772 -0.6626,12.360065 -1.9724,15.032175 -1.4366,3.08372 -4.2857,5.30379 -8.5478,6.62906 l 0.014,-40.058545 c 0.5229,-0.0539 1.0247,-0.082 1.5058,-0.0847 z m 118.3426,18.12189 c 2.7347,0.18509 4.7825,0.67988 6.1278,1.48622 2.7949,1.69286 4.203,5.04915 4.203,10.056235 0,5.03839 -1.408,8.16647 -4.203,9.37464 -1.3453,0.57307 -3.393,0.71289 -6.1278,0.42373 z"
             id="path2016-9-3-7-9-6-2-8-0-8-02-4-6-9-9-4-1-5-9-5-3-6-4"
             inkscape:connector-curvature="0"
             sodipodi:nodetypes="cccccccscccccccccccccccccccccccccccccccscccscsccccccccscccccccccccccsccsccccccsscccsscsccccccccccccccc" />
        </g>
      </g>
      <g
         id="g17819"
         transform="matrix(1.0193971,0,0,0.99937862,-378.29944,346.36659)">
        <g
           id="g27660-3-367-7"
           transform="matrix(1.0411405,0,0,0.97998517,21.184197,-4.4697432)">
          <g
             id="g6699-3-4-1-3-6-5-3-6-2"
             transform="translate(-376.79169,-239.90757)">
            <g
               id="g8494-6-8-9-6-2-7"
               transform="translate(523.36599,-273.28641)">
              <g
                 id="g3604-1-3-9-7-1-0-9-8-0-6-2"
                 style="fill:#aa0000;stroke-width:5"
                 transform="translate(236.24974,26.878508)">
                <g
                   aria-label="RIRACH"
                   transform="scale(0.86345421,1.158139)"
                   id="text924-6-7-2-7-0-6-0-6-26-4-6-1-2"
                   style="font-size:14.8798px;font-family:'Noto Sans Mono CJK HK';-inkscape-font-specification:'Noto Sans Mono CJK HK, Normal';stroke:#aa0000;stroke-linecap:square">
                  <g
                     id="path970">
                    <path
                       style="color:#000000;-inkscape-font-specification:'Noto Sans Mono CJK HK, Bold';stroke:none;stroke-linecap:butt;-inkscape-stroke:none"
                       d="m 34.472055,215.06698 v -3.3926 h 0.491034 c 0.907668,0 1.45822,0.40176 1.45822,1.59214 0,1.19039 -0.550552,1.80046 -1.45822,1.80046 z m 2.068293,5.90728 h 2.321248 l -1.815335,-4.61274 c 0.922547,-0.52079 1.532619,-1.53262 1.532619,-3.095 0,-2.52956 -1.50286,-3.34795 -3.407474,-3.34795 h -2.901561 v 11.05569 h 2.20221 v -4.16635 h 0.595192 z"
                       id="path6816" />
                    <path
                       style="color:#000000;-inkscape-font-specification:'Noto Sans Mono CJK HK, Bold';stroke:none;stroke-linecap:butt;-inkscape-stroke:none"
                       d="m 29.769531,207.41797 v 16.05664 h 5.003906 2.199219 5.558594 l -2.623047,-6.66797 c 0.685742,-1.02437 1.169922,-2.21097 1.169922,-3.54102 0,-1.75987 -0.633482,-3.47724 -1.871094,-4.52734 -1.237612,-1.05009 -2.724777,-1.32031 -4.035156,-1.32031 z m 5,5.44531 0.507813,0.50781 -0.507813,0.50586 z"
                       id="path6813" />
                  </g>
                  <g
                     id="path972">
                    <path
                       style="color:#000000;-inkscape-font-specification:'Noto Sans Mono CJK HK, Bold';stroke:none;stroke-linecap:butt;-inkscape-stroke:none"
                       d="m 39.798995,220.97426 h 5.92216 v -1.81534 h -1.874854 v -7.39526 h 1.874854 v -1.84509 h -5.92216 v 1.84509 h 1.830216 v 7.39526 h -1.830216 z"
                       id="path6810" />
                    <path
                       style="color:#000000;-inkscape-font-specification:'Noto Sans Mono CJK HK, Bold';stroke:none;stroke-linecap:butt;-inkscape-stroke:none"
                       d="m 37.298828,207.41797 v 6.8457 h 1.830078 v 2.39453 h -1.830078 v 6.81641 h 2.5 8.421875 v -6.81641 h -1.875 v -2.39453 h 1.875 v -6.8457 z"
                       id="path6807" />
                  </g>
                  <g
                     id="path974">
                    <path
                       style="color:#000000;-inkscape-font-specification:'Noto Sans Mono CJK HK, Bold';stroke:none;stroke-linecap:butt;-inkscape-stroke:none"
                       d="m 49.351798,215.06698 v -3.3926 h 0.491033 c 0.907668,0 1.458221,0.40176 1.458221,1.59214 0,1.19039 -0.550553,1.80046 -1.458221,1.80046 z m 2.068292,5.90728 h 2.321249 l -1.815336,-4.61274 c 0.922548,-0.52079 1.53262,-1.53262 1.53262,-3.095 0,-2.52956 -1.50286,-3.34795 -3.407474,-3.34795 h -2.901561 v 11.05569 h 2.20221 v -4.16635 h 0.595192 z"
                       id="path6804" />
                    <path
                       style="color:#000000;-inkscape-font-specification:'Noto Sans Mono CJK HK, Bold';stroke:none;stroke-linecap:butt;-inkscape-stroke:none"
                       d="m 44.650391,207.41797 v 16.05664 h 5.001953 2.199218 5.560547 l -2.625,-6.66797 c 0.685742,-1.02437 1.171875,-2.21097 1.171875,-3.54102 0,-1.75987 -0.635435,-3.47724 -1.873047,-4.52734 -1.237611,-1.05009 -2.724777,-1.32031 -4.035156,-1.32031 z m 5,5.44726 0.505859,0.50586 -0.505859,0.50391 z"
                       id="path6801" />
                  </g>
                  <g
                     id="path978">
                    <path
                       style="color:#000000;-inkscape-font-specification:'Noto Sans Mono CJK HK, Bold';stroke:none;stroke-linecap:butt;-inkscape-stroke:none"
                       d="m 65.942718,221.15282 c 1.011826,0 1.964133,-0.43152 2.693243,-1.32431 l -1.249903,-1.3243 c -0.342235,0.47616 -0.74399,0.74399 -1.235023,0.74399 -1.041586,0 -1.934374,-0.99694 -1.934374,-3.82411 0,-2.76764 0.937427,-3.79435 1.830215,-3.79435 0.520793,0 0.848149,0.26784 1.220144,0.69935 l 1.249903,-1.36894 c -0.595192,-0.65471 -1.443341,-1.22014 -2.559326,-1.22014 -2.127811,0 -4.002666,1.72606 -4.002666,5.77336 0,4.06219 1.874855,5.63945 3.987787,5.63945 z"
                       id="path6792" />
                  </g>
                  <g
                     id="path980">
                    <path
                       style="color:#000000;-inkscape-font-specification:'Noto Sans Mono CJK HK, Bold';stroke:none;stroke-linecap:butt;-inkscape-stroke:none"
                       d="m 69.469201,220.97426 h 2.21709 v -4.7913 h 1.681418 v 4.7913 h 2.20221 v -11.05569 h -2.20221 v 4.37466 h -1.681418 v -4.37466 h -2.21709 z"
                       id="path6786" />
                    <path
                       style="color:#000000;-inkscape-font-specification:'Noto Sans Mono CJK HK, Bold';stroke:none;stroke-linecap:butt;-inkscape-stroke:none"
                       d="m 66.96875,207.41797 v 16.05664 h 2.5 1.398437 3.31836 3.884765 v -16.05664 h -3.884765 -3.31836 z"
                       id="path6783" />
                  </g>
                </g>
                <g
                   aria-label="S"
                   transform="scale(0.84737178,1.1801195)"
                   id="text924-9-9-2-3-5-8-1-5-6-4-1-6-7-1"
                   style="font-size:21.8623px;font-family:'Noto Sans Mono CJK HK';-inkscape-font-specification:'Noto Sans Mono CJK HK, Normal';stroke:#aa0000;stroke-width:4.92604;stroke-linecap:square">
                  <g
                     id="path1019">
                    <path
                       style="color:#000000;-inkscape-font-specification:'Noto Sans Mono CJK HK, Bold';stroke:none;stroke-linecap:butt;-inkscape-stroke:none"
                       d="m 26.404354,216.91884 c 2.951411,0 4.831568,-2.09878 4.831568,-4.65667 0,-2.36113 -1.071252,-3.43238 -2.536026,-4.45991 l -1.311738,-0.94008 c -1.442912,-1.02752 -1.98947,-1.42105 -1.98947,-2.51416 0,-0.89636 0.634007,-1.42105 1.377325,-1.42105 0.940079,0 1.574086,0.50283 2.47044,1.3336 l 1.683397,-2.03319 c -1.246151,-1.31174 -2.557889,-2.07692 -4.175699,-2.07692 -2.75465,0 -4.612946,1.9676 -4.612946,4.43804 0,2.29555 1.180565,3.47611 2.579752,4.43805 l 1.399187,0.96194 c 1.224289,0.78705 1.792709,1.53036 1.792709,2.73279 0,0.85263 -0.590282,1.39919 -1.508499,1.39919 -0.896354,0 -1.858296,-0.65587 -2.710925,-1.72712 l -1.98947,2.16436 c 1.333601,1.53036 2.995135,2.36113 4.700395,2.36113 z"
                       id="path6780" />
                    <path
                       style="color:#000000;-inkscape-font-specification:'Noto Sans Mono CJK HK, Bold';stroke:none;stroke-linecap:butt;-inkscape-stroke:none"
                       d="m 26.753906,197.6875 c -3.927508,0 -7.076172,3.19481 -7.076172,6.90039 0,2.55788 1.363277,4.30979 2.744141,5.54883 l -4.023438,4.37695 1.449219,1.66211 c 1.709246,1.96143 4.051426,3.20703 6.556641,3.20703 4.11906,0 7.294922,-3.35626 7.294922,-7.12109 0,-2.73786 -1.519624,-4.63806 -3.011719,-5.88086 l 3.533203,-4.26563 -1.505859,-1.58398 c -1.511175,-1.59071 -3.566503,-2.84375 -5.960938,-2.84375 z"
                       id="path6777" />
                  </g>
                </g>
                <g
                   aria-label="A"
                   transform="scale(0.86345421,1.158139)"
                   id="text924-9-3-2-2-9-5-0-5-4-8-50-3-8-20-6"
                   style="font-size:22.1906px;font-family:'Noto Sans Mono CJK HK';-inkscape-font-specification:'Noto Sans Mono CJK HK, Normal';stroke:#aa0000;stroke-linecap:square">
                  <g
                     id="path1028">
                    <path
                       style="color:#000000;-inkscape-font-specification:'Noto Sans Mono CJK HK, Bold';stroke:none;stroke-linecap:butt;-inkscape-stroke:none"
                       d="m 76.977569,221.0247 h 3.128875 l 0.665718,-4.21621 h 3.151065 l 0.665718,4.21621 h 3.173256 l -3.128875,-16.48761 h -4.526882 z m 4.194024,-6.79032 0.288477,-1.79744 c 0.288478,-1.70867 0.599147,-3.59488 0.821053,-5.39231 h 0.08876 c 0.288478,1.79743 0.532574,3.68364 0.843243,5.39231 l 0.288478,1.79744 z"
                       id="path6774" />
                    <path
                       style="color:#000000;-inkscape-font-specification:'Noto Sans Mono CJK HK, Bold';stroke:none;stroke-linecap:butt;-inkscape-stroke:none"
                       d="m 78.037109,202.03711 -4.078125,21.48828 h 3.019532 5.263671 l 0.105469,-0.66797 0.105469,0.66797 h 8.328125 l -4.078125,-21.48828 z"
                       id="path6771" />
                  </g>
                </g>
              </g>
              <g
                 id="g8469-9-8-4-9-3-5">
                <g
                   id="g3604-74-6-6-2-2-71-4-2-75-9"
                   style="stroke:#ffffff;stroke-width:2"
                   transform="translate(236.24974,26.878508)">
                  <g
                     aria-label="RIRACH"
                     transform="scale(0.86345421,1.158139)"
                     id="text924-6-7-4-3-2-5-02-7-4-0-9-4"
                     style="font-size:14.8798px;font-family:'Noto Sans Mono CJK HK';-inkscape-font-specification:'Noto Sans Mono CJK HK, Normal';fill:#aa0000;stroke-linecap:square">
                    <g
                       id="path1037">
                      <path
                         style="color:#000000;-inkscape-font-specification:'Noto Sans Mono CJK HK, Bold';stroke:none;stroke-linecap:butt;-inkscape-stroke:none"
                         d="m 34.472055,215.06698 v -3.3926 h 0.491034 c 0.907668,0 1.45822,0.40176 1.45822,1.59214 0,1.19039 -0.550552,1.80046 -1.45822,1.80046 z m 2.068293,5.90728 h 2.321248 l -1.815335,-4.61274 c 0.922547,-0.52079 1.532619,-1.53262 1.532619,-3.095 0,-2.52956 -1.50286,-3.34795 -3.407474,-3.34795 h -2.901561 v 11.05569 h 2.20221 v -4.16635 h 0.595192 z"
                         id="path6768" />
                      <path
                         style="color:#000000;-inkscape-font-specification:'Noto Sans Mono CJK HK, Bold';fill:#ffffff;stroke:none;stroke-linecap:butt;-inkscape-stroke:none"
                         d="m 31.269531,208.91797 v 13.05664 h 4.203125 v -1.02149 l 0.361328,1.02149 h 0.707032 3.789062 l -2.138672,-5.43164 c 0.802398,-0.78745 1.386719,-1.85633 1.386719,-3.27735 0,-1.46281 -0.478477,-2.65225 -1.341797,-3.38476 -0.863319,-0.73251 -1.968918,-0.96289 -3.064453,-0.96289 z m 2,2 h 0.203125 v 4.89062 0.25782 3.9082 H 33.269531 Z M 36.75,211.35352 c 0.04525,0.0305 0.153629,0.019 0.193359,0.0527 0.364263,0.30907 0.634766,0.79264 0.634766,1.85937 0,1.07936 -0.32863,1.60438 -0.771484,1.9668 0.438909,-0.53708 0.615234,-1.22544 0.615234,-1.9668 0,-0.73436 -0.194912,-1.41825 -0.671875,-1.9121 z m 0.02539,3.9121 c -0.08125,0.0633 -0.130455,0.17367 -0.220704,0.22461 l -0.74414,0.41993 -0.03711,-0.10157 h -0.226562 c 0.447078,-0.11582 0.923194,-0.18729 1.228516,-0.54297 z m -0.828125,1.03321 1.447265,3.67578 h -0.148437 z"
                         id="path6765" />
                    </g>
                    <g
                       id="path1039">
                      <path
                         style="color:#000000;-inkscape-font-specification:'Noto Sans Mono CJK HK, Bold';stroke:none;stroke-linecap:butt;-inkscape-stroke:none"
                         d="m 39.798995,220.97426 h 5.92216 v -1.81534 h -1.874854 v -7.39526 h 1.874854 v -1.84509 h -5.92216 v 1.84509 h 1.830216 v 7.39526 h -1.830216 z"
                         id="path6762" />
                      <path
                         style="color:#000000;-inkscape-font-specification:'Noto Sans Mono CJK HK, Bold';fill:#ffffff;stroke:none;stroke-linecap:butt;-inkscape-stroke:none"
                         d="m 38.798828,208.91797 v 3.8457 h 1.830078 v 5.39453 h -1.830078 v 3.81641 h 1 6.921875 v -3.81641 h -1.875 v -5.39453 h 1.875 v -3.8457 z m 3.830078,2 h 0.216797 v 9.05664 h -0.216797 z"
                         id="path6759" />
                    </g>
                    <g
                       id="path1041">
                      <path
                         style="color:#000000;-inkscape-font-specification:'Noto Sans Mono CJK HK, Bold';stroke:none;stroke-linecap:butt;-inkscape-stroke:none"
                         d="m 49.351798,215.06698 v -3.3926 h 0.491033 c 0.907668,0 1.458221,0.40176 1.458221,1.59214 0,1.19039 -0.550553,1.80046 -1.458221,1.80046 z m 2.068292,5.90728 h 2.321249 l -1.815336,-4.61274 c 0.922548,-0.52079 1.53262,-1.53262 1.53262,-3.095 0,-2.52956 -1.50286,-3.34795 -3.407474,-3.34795 h -2.901561 v 11.05569 h 2.20221 v -4.16635 h 0.595192 z"
                         id="path6756" />
                      <path
                         style="color:#000000;-inkscape-font-specification:'Noto Sans Mono CJK HK, Bold';fill:#ffffff;stroke:none;stroke-linecap:butt;-inkscape-stroke:none"
                         d="m 46.150391,208.91797 v 13.05664 h 4.201171 v -1.02149 l 0.361329,1.02149 h 0.707031 3.789062 l -2.136718,-5.43164 c 0.802398,-0.78745 1.386718,-1.85633 1.386718,-3.27735 0,-1.46281 -0.48043,-2.65225 -1.34375,-3.38476 -0.863319,-0.73251 -1.968917,-0.96289 -3.064453,-0.96289 z m 2,2 h 0.201171 v 4.89062 0.25782 3.9082 h -0.201171 z m 3.480468,0.43555 c 0.04478,0.0303 0.15205,0.0193 0.191407,0.0527 0.364262,0.30907 0.636718,0.79264 0.636718,1.85937 0,1.08051 -0.329783,1.60642 -0.773437,1.96875 0.439798,-0.53728 0.615234,-1.22672 0.615234,-1.96875 0,-0.73435 -0.192966,-1.41825 -0.669922,-1.9121 z m 0.02539,3.91015 c -0.08179,0.0639 -0.131734,0.17524 -0.222656,0.22656 l -0.742188,0.41993 -0.03711,-0.10157 h -0.228516 c 0.448384,-0.11593 0.924727,-0.18779 1.23047,-0.54492 z m -0.828125,1.03906 1.445312,3.67188 h -0.146484 z"
                         id="path6753" />
                    </g>
                    <g
                       id="path1043">
                      <path
                         style="color:#000000;-inkscape-font-specification:'Noto Sans Mono CJK HK, Bold';stroke:none;stroke-linecap:butt;-inkscape-stroke:none"
                         d="m 54.024027,220.97426 h 2.098052 l 0.446394,-2.82716 h 2.112931 l 0.446394,2.82716 h 2.127812 l -2.098052,-11.05569 h -3.035479 z m 2.812282,-4.55322 0.193438,-1.20526 c 0.193437,-1.14575 0.401754,-2.41053 0.550552,-3.6158 h 0.05952 c 0.193438,1.20527 0.357116,2.47005 0.565433,3.6158 l 0.193437,1.20526 z"
                         id="path6750" />
                      <path
                         style="color:#000000;-inkscape-font-specification:'Noto Sans Mono CJK HK, Bold';fill:#ffffff;stroke:none;stroke-linecap:butt;-inkscape-stroke:none"
                         d="m 55.294922,208.91797 -2.478516,13.05664 h 1.207031 2.953125 l 0.447266,-2.82813 h 0.402344 l 0.447265,2.82813 h 4.189454 l -2.476563,-13.05664 z m 4.357422,8.96484 0.396484,2.0918 h -0.06641 z m -4.201172,0.92774 -0.183594,1.16406 h -0.03711 z"
                         id="path6747" />
                    </g>
                    <g
                       id="path1045">
                      <path
                         style="color:#000000;-inkscape-font-specification:'Noto Sans Mono CJK HK, Bold';stroke:none;stroke-linecap:butt;-inkscape-stroke:none"
                         d="m 65.942718,221.15282 c 1.011826,0 1.964133,-0.43152 2.693243,-1.32431 l -1.249903,-1.3243 c -0.342235,0.47616 -0.74399,0.74399 -1.235023,0.74399 -1.041586,0 -1.934374,-0.99694 -1.934374,-3.82411 0,-2.76764 0.937427,-3.79435 1.830215,-3.79435 0.520793,0 0.848149,0.26784 1.220144,0.69935 l 1.249903,-1.36894 c -0.595192,-0.65471 -1.443341,-1.22014 -2.559326,-1.22014 -2.127811,0 -4.002666,1.72606 -4.002666,5.77336 0,4.06219 1.874855,5.63945 3.987787,5.63945 z"
                         id="path6744" />
                    </g>
                    <g
                       id="path1047">
                      <path
                         style="color:#000000;-inkscape-font-specification:'Noto Sans Mono CJK HK, Bold';stroke:none;stroke-linecap:butt;-inkscape-stroke:none"
                         d="m 69.469201,220.97426 h 2.21709 v -4.7913 h 1.681418 v 4.7913 h 2.20221 v -11.05569 h -2.20221 v 4.37466 h -1.681418 v -4.37466 h -2.21709 z"
                         id="path6741" />
                      <path
                         style="color:#000000;-inkscape-font-specification:'Noto Sans Mono CJK HK, Bold';fill:#ffffff;stroke:none;stroke-linecap:butt;-inkscape-stroke:none"
                         d="m 68.46875,208.91797 v 13.05664 h 1 2.898437 0.31836 3.884765 v -13.05664 h -3.884765 -0.31836 z m 2,2 h 0.216797 v 4.26562 0.10938 4.68164 H 70.46875 Z m 3.898437,0 h 0.203125 v 9.05664 h -0.203125 v -4.68164 -0.10938 z"
                         id="path6738" />
                    </g>
                  </g>
                  <g
                     aria-label="S"
                     transform="scale(0.85718906,1.1666038)"
                     id="text924-9-9-2-0-5-7-6-7-7-7-3-2-0"
                     style="font-size:22.0449px;font-family:'Noto Sans Mono CJK HK';-inkscape-font-specification:'Noto Sans Mono CJK HK, Normal';fill:#aa0000;stroke-width:1.98687;stroke-linecap:square">
                    <g
                       id="path1086">
                      <path
                         style="color:#000000;-inkscape-font-specification:'Noto Sans Mono CJK HK, Bold';stroke:none;stroke-linecap:butt;-inkscape-stroke:none"
                         d="m 26.378099,219.40484 c 2.976062,0 4.871923,-2.11631 4.871923,-4.69556 0,-2.38085 -1.0802,-3.46105 -2.557208,-4.49716 l -1.322695,-0.94793 c -1.454963,-1.03611 -2.006085,-1.43292 -2.006085,-2.53516 0,-0.90385 0.639302,-1.43292 1.388828,-1.43292 0.947931,0 1.587233,0.50703 2.491074,1.34474 l 1.697457,-2.05018 c -1.256559,-1.32269 -2.579253,-2.09427 -4.210576,-2.09427 -2.777657,0 -4.651474,1.98405 -4.651474,4.47512 0,2.31471 1.190425,3.50514 2.601299,4.47511 l 1.410873,0.96998 c 1.234515,0.79362 1.807682,1.54314 1.807682,2.75561 0,0.85975 -0.595212,1.41088 -1.521098,1.41088 -0.903841,0 -1.873817,-0.66135 -2.733568,-1.74155 l -2.006086,2.18244 c 1.344739,1.54315 3.020152,2.38085 4.739654,2.38085 z"
                         id="path6735" />
                      <path
                         style="color:#000000;-inkscape-font-specification:'Noto Sans Mono CJK HK, Bold';fill:#ffffff;stroke:none;stroke-linecap:butt;-inkscape-stroke:none"
                         d="m 26.730469,201.50391 c -3.250721,0 -5.644531,2.47754 -5.644532,5.46679 0,2.65532 1.52266,4.25778 3.03125,5.29492 l 1.423829,0.97852 0.01367,0.008 c 0.55642,0.3577 0.894781,0.66769 1.082032,0.94336 0.187251,0.27568 0.269531,0.52687 0.269531,0.97656 0,0.20063 -0.04321,0.25017 -0.0957,0.29883 -0.05249,0.0487 -0.165811,0.11914 -0.431641,0.11914 -0.419236,0 -1.200968,-0.41726 -1.957031,-1.36718 l -0.722656,-0.90821 -3.394532,3.69141 0.583985,0.66992 c 1.496252,1.71702 3.448083,2.72266 5.490234,2.72266 3.44702,0 5.865235,-2.6234 5.865235,-5.68946 0,-2.67689 -1.419338,-4.21326 -2.972657,-5.30468 l -0.0078,-0.006 -1.316406,-0.94336 c -0.726947,-0.51768 -1.184859,-0.86569 -1.376954,-1.08594 -0.192094,-0.22025 -0.21289,-0.25508 -0.21289,-0.64062 0,-0.43541 0.112498,-0.43946 0.394531,-0.43946 0.593684,0 0.937282,0.26528 1.816406,1.08008 l 0.771485,0.71484 2.929687,-3.53906 -0.607422,-0.63867 c -1.363451,-1.43521 -2.987071,-2.40234 -4.93164,-2.40234 z m 0,1.98632 c 1.050354,0 1.917731,0.47758 2.80664,1.23829 l -0.445312,0.5371 c -0.686186,-0.53065 -1.411206,-0.96289 -2.339844,-0.96289 -1.217017,0 -2.380859,1.05349 -2.380859,2.42579 0,0.71669 0.253965,1.43256 0.701172,1.94531 0.447207,0.51274 0.992688,0.88195 1.720703,1.40039 l 1.326172,0.94922 0.0039,0.002 c 1.397678,0.98046 2.132812,1.60323 2.132812,3.68359 0,2.09244 -1.371855,3.70313 -3.876953,3.70313 -1.145225,0 -2.26686,-0.57124 -3.300781,-1.48828 l 0.621094,-0.67578 c 0.789475,0.74755 1.652979,1.32812 2.679687,1.32812 0.660055,0 1.306618,-0.2066 1.783203,-0.64844 0.476586,-0.44183 0.730469,-1.09673 0.730469,-1.75586 0,-0.76277 -0.205321,-1.49118 -0.613281,-2.09179 -0.407961,-0.60061 -0.972296,-1.06408 -1.650391,-1.5 l -1.384765,-0.95117 c -1.313155,-0.90279 -2.171875,-1.68411 -2.171875,-3.65821 0,-1.99288 1.353615,-3.48047 3.658203,-3.48047 z"
                         id="path6732" />
                    </g>
                  </g>
                  <g
                     aria-label="A"
                     transform="scale(0.86629898,1.1543359)"
                     id="text924-9-3-2-2-8-1-5-8-9-2-3-5-9-1"
                     style="font-size:22.2565px;font-family:'Noto Sans Mono CJK HK';-inkscape-font-specification:'Noto Sans Mono CJK HK, Normal';fill:#aa0000;stroke-width:2.00594;stroke-linecap:square">
                    <g
                       id="path1095">
                      <path
                         style="color:#000000;-inkscape-font-specification:'Noto Sans Mono CJK HK, Bold';stroke:none;stroke-linecap:butt;-inkscape-stroke:none"
                         d="m 76.728084,221.75021 h 3.138167 l 0.667695,-4.22873 h 3.160423 l 0.667695,4.22873 h 3.182679 l -3.138166,-16.53658 h -4.540326 z m 4.206479,-6.81049 0.289334,-1.80277 c 0.289335,-1.71375 0.600926,-3.60556 0.823491,-5.40833 h 0.08903 c 0.289334,1.80277 0.534156,3.69458 0.845747,5.40833 l 0.289334,1.80277 z"
                         id="path6729" />
                      <path
                         style="color:#000000;-inkscape-font-specification:'Noto Sans Mono CJK HK, Bold';fill:#ffffff;stroke:none;stroke-linecap:butt;-inkscape-stroke:none"
                         d="m 79.035156,204.21094 -3.517578,18.54297 h 1.210938 3.99414 l 0.667969,-4.22852 h 1.447266 l 0.667968,4.22852 h 5.25 l -3.519531,-18.54297 z m 1.66211,2.00586 h 2.878906 l 2.755859,14.53125 H 85.21875 l -0.667969,-4.23047 h -4.873047 l -0.667968,4.23047 h -1.070313 z m 0.46289,0.50976 -0.107422,0.87891 c -0.219071,1.77447 -0.529517,3.6544 -0.818359,5.36523 v 0.004 l -0.476563,2.96875 h 1.175782 3.515625 l -0.478516,-2.97656 -0.002,-0.01 c -0.304892,-1.67691 -0.549094,-3.56296 -0.841797,-5.38672 l -0.134766,-0.84375 z"
                         id="path6726" />
                    </g>
                  </g>
                </g>
                <rect
                   style="fill:#ffffff;stroke-width:7.83511"
                   id="rect6723"
                   width="47.657532"
                   height="15.323099"
                   x="261.65234"
                   y="268.66385"
                   ry="0" />
              </g>
              <g
                 id="g3604-7-8-5-4-7-8-0-5-2-6-1"
                 style="stroke-width:1.7"
                 transform="translate(236.24974,26.878508)">
                <g
                   aria-label="RIRACH"
                   transform="scale(0.86345421,1.158139)"
                   id="text924-6-7-8-4-9-1-24-9-6-9-8-1-1"
                   style="font-size:14.8798px;font-family:'Noto Sans Mono CJK HK';-inkscape-font-specification:'Noto Sans Mono CJK HK, Normal';fill:#aa0000;stroke-linecap:square">
                  <path
                     d="m 34.472055,215.06698 v -3.3926 h 0.491034 c 0.907668,0 1.45822,0.40176 1.45822,1.59214 0,1.19039 -0.550552,1.80046 -1.45822,1.80046 z m 2.068293,5.90728 h 2.321248 l -1.815335,-4.61274 c 0.922547,-0.52079 1.532619,-1.53262 1.532619,-3.095 0,-2.52956 -1.50286,-3.34795 -3.407474,-3.34795 h -2.901561 v 11.05569 h 2.20221 v -4.16635 h 0.595192 z"
                     style="-inkscape-font-specification:'Noto Sans Mono CJK HK, Bold'"
                     id="path6720" />
                  <path
                     d="m 39.798995,220.97426 h 5.92216 v -1.81534 h -1.874854 v -7.39526 h 1.874854 v -1.84509 h -5.92216 v 1.84509 h 1.830216 v 7.39526 h -1.830216 z"
                     style="-inkscape-font-specification:'Noto Sans Mono CJK HK, Bold'"
                     id="path6717" />
                  <path
                     d="m 49.351798,215.06698 v -3.3926 h 0.491033 c 0.907668,0 1.458221,0.40176 1.458221,1.59214 0,1.19039 -0.550553,1.80046 -1.458221,1.80046 z m 2.068292,5.90728 h 2.321249 l -1.815336,-4.61274 c 0.922548,-0.52079 1.53262,-1.53262 1.53262,-3.095 0,-2.52956 -1.50286,-3.34795 -3.407474,-3.34795 h -2.901561 v 11.05569 h 2.20221 v -4.16635 h 0.595192 z"
                     style="-inkscape-font-specification:'Noto Sans Mono CJK HK, Bold'"
                     id="path6714" />
                  <path
                     d="m 54.024027,220.97426 h 2.098052 l 0.446394,-2.82716 h 2.112931 l 0.446394,2.82716 h 2.127812 l -2.098052,-11.05569 h -3.035479 z m 2.812282,-4.55322 0.193438,-1.20526 c 0.193437,-1.14575 0.401754,-2.41053 0.550552,-3.6158 h 0.05952 c 0.193438,1.20527 0.357116,2.47005 0.565433,3.6158 l 0.193437,1.20526 z"
                     style="-inkscape-font-specification:'Noto Sans Mono CJK HK, Bold'"
                     id="path6711" />
                  <path
                     d="m 65.942718,221.15282 c 1.011826,0 1.964133,-0.43152 2.693243,-1.32431 l -1.249903,-1.3243 c -0.342235,0.47616 -0.74399,0.74399 -1.235023,0.74399 -1.041586,0 -1.934374,-0.99694 -1.934374,-3.82411 0,-2.76764 0.937427,-3.79435 1.830215,-3.79435 0.520793,0 0.848149,0.26784 1.220144,0.69935 l 1.249903,-1.36894 c -0.595192,-0.65471 -1.443341,-1.22014 -2.559326,-1.22014 -2.127811,0 -4.002666,1.72606 -4.002666,5.77336 0,4.06219 1.874855,5.63945 3.987787,5.63945 z"
                     style="-inkscape-font-specification:'Noto Sans Mono CJK HK, Bold'"
                     id="path6708" />
                  <path
                     d="m 69.469201,220.97426 h 2.21709 v -4.7913 h 1.681418 v 4.7913 h 2.20221 v -11.05569 h -2.20221 v 4.37466 h -1.681418 v -4.37466 h -2.21709 z"
                     style="-inkscape-font-specification:'Noto Sans Mono CJK HK, Bold'"
                     id="path6705" />
                </g>
                <g
                   aria-label="S"
                   transform="scale(0.8529688,1.1723758)"
                   id="text924-9-9-2-5-1-4-5-6-3-5-2-7-9-9"
                   style="font-size:21.9211px;font-family:'Noto Sans Mono CJK HK';-inkscape-font-specification:'Noto Sans Mono CJK HK, Normal';fill:#aa0000;stroke-width:1.67936;stroke-linecap:square">
                  <path
                     d="m 26.552652,218.31879 c 2.959348,0 4.844563,-2.10442 4.844563,-4.66919 0,-2.36748 -1.074134,-3.44161 -2.542848,-4.47191 l -1.315266,-0.9426 c -1.446792,-1.03029 -1.99482,-1.42487 -1.99482,-2.52093 0,-0.89876 0.635712,-1.42487 1.381029,-1.42487 0.942608,0 1.57832,0.50418 2.477085,1.33719 l 1.687924,-2.03867 c -1.249502,-1.31526 -2.564768,-2.0825 -4.18693,-2.0825 -2.762058,0 -4.625352,1.9729 -4.625352,4.44998 0,2.30172 1.183739,3.48546 2.58669,4.44999 l 1.40295,0.96452 c 1.227582,0.78916 1.797531,1.53448 1.797531,2.74014 0,0.85493 -0.59187,1.40295 -1.512556,1.40295 -0.898765,0 -1.863294,-0.65763 -2.718217,-1.73176 l -1.99482,2.17018 c 1.337187,1.53448 3.003191,2.36748 4.713037,2.36748 z"
                     style="-inkscape-font-specification:'Noto Sans Mono CJK HK, Bold'"
                     id="path6702" />
                </g>
                <g
                   aria-label="A"
                   transform="scale(0.86345421,1.158139)"
                   id="text924-9-3-2-2-3-9-1-7-9-1-49-7-6-1-7"
                   style="font-size:22.1906px;font-family:'Noto Sans Mono CJK HK';-inkscape-font-specification:'Noto Sans Mono CJK HK, Normal';fill:#aa0000;stroke-linecap:square">
                  <path
                     d="m 76.977569,221.0247 h 3.128875 l 0.665718,-4.21621 h 3.151065 l 0.665718,4.21621 h 3.173256 l -3.128875,-16.48761 h -4.526882 z m 4.194024,-6.79032 0.288477,-1.79744 c 0.288478,-1.70867 0.599147,-3.59488 0.821053,-5.39231 h 0.08876 c 0.288478,1.79743 0.532574,3.68364 0.843243,5.39231 l 0.288478,1.79744 z"
                     style="-inkscape-font-specification:'Noto Sans Mono CJK HK, Bold'"
                     id="path6699" />
                </g>
              </g>
            </g>
          </g>
        </g>
        <g
           id="rect1790-0-7">
          <path
             style="color:#000000;fill:#aa0000;stroke-width:1.3452;-inkscape-stroke:none"
             d="m 443.77805,-228.06398 h 56.00918 v 0.041 h -56.00918 z"
             id="path6696" />
          <path
             style="color:#000000;fill:#aa0000;-inkscape-stroke:none"
             d="m 443.10547,-228.73633 v 0.67188 0.71484 h 57.35351 v -1.38672 z"
             id="path6693" />
        </g>
        <rect
           style="fill:#ffffff;stroke-width:1.07127"
           id="rect6690"
           width="29.907389"
           height="1.1526617"
           x="448.00546"
           y="-230.24702" />
        <rect
           style="fill:#aa0000;stroke-width:1.57538"
           id="rect6684"
           width="58.670658"
           height="1.1565012"
           x="441.55389"
           y="-229.0954"
           ry="0.0053724865" />
        <rect
           style="fill:#aa0000;stroke-width:1.27317"
           id="rect6681"
           width="38.320286"
           height="1.1565012"
           x="448.57025"
           y="-246.00551" />
        <rect
           style="fill:#aa0000;stroke-width:0.225749"
           id="rect6678"
           width="1.2047751"
           height="1.1565012"
           x="448.49158"
           y="-246.62746" />
        <rect
           style="fill:#aa0000;stroke-width:0.641783"
           id="rect6675"
           width="3.5770361"
           height="3.148108"
           x="486.62579"
           y="-248.15826" />
        <rect
           style="fill:#aa0000;stroke-width:0.613852"
           id="rect6672"
           width="2.3666835"
           height="4.3529596"
           x="394.88168"
           y="-387.51013"
           transform="matrix(0.95360863,0.30104913,-0.29034667,0.95692153,0,0)" />
        <rect
           style="fill:#ffffff;stroke-width:0.496166"
           id="rect6669"
           width="8.1356287"
           height="1.0891776"
           x="443.05261"
           y="-230.18513" />
        <rect
           style="fill:#ffffff;stroke-width:0.405696"
           id="rect6666"
           width="2.495477"
           height="1.8032169"
           x="445.80286"
           y="-231.03084" />
        <path
           id="path6663"
           style="fill:#ffffff;stroke-width:0.456967"
           inkscape:transform-center-x="0.17909238"
           inkscape:transform-center-y="-1.7094521"
           d="m 442.83238,-245.76832 0.15382,1.79883 0.65623,0.90967 0.89291,0.77656 0.58971,0.39875 0.83858,0.86494 0.45641,0.49089 0.5971,1.2659 1.41957,-0.13642 -0.13665,-1.0354 0.0472,-0.65959 v -1.4025 l -0.003,-0.6843 -0.0436,-0.74867 -2.38997,-0.007 -0.35068,-0.88798 -0.96234,-0.93817 z"
           sodipodi:nodetypes="cccccccccccccccccc" />
        <rect
           style="fill:#ffffff;stroke-width:0.882343"
           id="rect6660"
           width="19.509705"
           height="1.0793291"
           x="479.92294"
           y="-230.1725"
           ry="0" />
      </g>
    </g>
  </g>
</svg>
